<mxfile host="app.diagrams.net" modified="2024-04-07T19:28:35.949Z" agent="Mozilla/5.0 (Windows NT 10.0; Win64; x64) AppleWebKit/537.36 (KHTML, like Gecko) Chrome/122.0.0.0 Safari/537.36 OPR/108.0.0.0" etag="77vePjyE2wxkb6DlZxSH" version="24.2.2" type="github">
  <diagram name="Page-1" id="e7e014a7-5840-1c2e-5031-d8a46d1fe8dd">
    <mxGraphModel dx="1624" dy="921" grid="1" gridSize="10" guides="1" tooltips="1" connect="1" arrows="1" fold="1" page="1" pageScale="1" pageWidth="1169" pageHeight="826" background="none" math="0" shadow="0">
      <root>
        <mxCell id="0" />
        <mxCell id="1" parent="0" />
        <mxCell id="KvyDfqnCCZGzKHxKtFAb-42" value="App" style="swimlane;whiteSpace=wrap;fontColor=default;" parent="1" vertex="1">
          <mxGeometry x="460" y="70" width="280" height="720" as="geometry" />
        </mxCell>
        <mxCell id="WroTUtNixbzUDQ-o0xK4-2" value="Consulta solução recomendada" style="ellipse;whiteSpace=wrap;html=1;" vertex="1" parent="KvyDfqnCCZGzKHxKtFAb-42">
          <mxGeometry x="70" y="600" width="120" height="80" as="geometry" />
        </mxCell>
        <mxCell id="r28bAOc9dA7kiJvajCny-12" value="login no sistema&amp;nbsp;" style="ellipse;whiteSpace=wrap;html=1;" parent="KvyDfqnCCZGzKHxKtFAb-42" vertex="1">
          <mxGeometry x="70" y="150" width="120" height="80" as="geometry" />
        </mxCell>
        <mxCell id="r28bAOc9dA7kiJvajCny-6" value="" style="rounded=0;orthogonalLoop=1;jettySize=auto;html=1;entryX=0;entryY=0.5;entryDx=0;entryDy=0;" parent="1" target="r28bAOc9dA7kiJvajCny-12" edge="1">
          <mxGeometry relative="1" as="geometry">
            <mxPoint x="535" y="210" as="targetPoint" />
            <mxPoint x="280" y="220" as="sourcePoint" />
          </mxGeometry>
        </mxCell>
        <mxCell id="r28bAOc9dA7kiJvajCny-19" style="rounded=0;orthogonalLoop=1;jettySize=auto;html=1;entryX=0;entryY=0.5;entryDx=0;entryDy=0;" parent="1" target="r28bAOc9dA7kiJvajCny-13" edge="1">
          <mxGeometry relative="1" as="geometry">
            <mxPoint x="280" y="240" as="sourcePoint" />
          </mxGeometry>
        </mxCell>
        <mxCell id="r28bAOc9dA7kiJvajCny-21" style="rounded=0;orthogonalLoop=1;jettySize=auto;html=1;entryX=0;entryY=0.5;entryDx=0;entryDy=0;" parent="1" target="r28bAOc9dA7kiJvajCny-14" edge="1">
          <mxGeometry relative="1" as="geometry">
            <mxPoint x="270" y="260" as="sourcePoint" />
          </mxGeometry>
        </mxCell>
        <mxCell id="r28bAOc9dA7kiJvajCny-23" style="rounded=0;orthogonalLoop=1;jettySize=auto;html=1;entryX=0;entryY=0.5;entryDx=0;entryDy=0;" parent="1" target="r28bAOc9dA7kiJvajCny-22" edge="1">
          <mxGeometry relative="1" as="geometry">
            <mxPoint x="250" y="270" as="sourcePoint" />
            <mxPoint x="510" y="600" as="targetPoint" />
          </mxGeometry>
        </mxCell>
        <mxCell id="r28bAOc9dA7kiJvajCny-1" value="Técnico" style="shape=umlActor;verticalLabelPosition=bottom;verticalAlign=top;html=1;outlineConnect=0;" parent="1" vertex="1">
          <mxGeometry x="230" y="180" width="30" height="60" as="geometry" />
        </mxCell>
        <mxCell id="r28bAOc9dA7kiJvajCny-18" style="rounded=0;orthogonalLoop=1;jettySize=auto;html=1;" parent="1" source="r28bAOc9dA7kiJvajCny-12" target="r28bAOc9dA7kiJvajCny-17" edge="1">
          <mxGeometry relative="1" as="geometry" />
        </mxCell>
        <mxCell id="r28bAOc9dA7kiJvajCny-13" value="carrega mapas com máquinas&amp;nbsp;" style="ellipse;whiteSpace=wrap;html=1;" parent="1" vertex="1">
          <mxGeometry x="530" y="320" width="120" height="80" as="geometry" />
        </mxCell>
        <mxCell id="r28bAOc9dA7kiJvajCny-14" value="consulta informações das unidades" style="ellipse;whiteSpace=wrap;html=1;" parent="1" vertex="1">
          <mxGeometry x="530" y="430" width="120" height="80" as="geometry" />
        </mxCell>
        <mxCell id="r28bAOc9dA7kiJvajCny-17" value="Servidor de chamados" style="shape=umlActor;verticalLabelPosition=bottom;verticalAlign=top;html=1;outlineConnect=0;" parent="1" vertex="1">
          <mxGeometry x="890" y="220" width="30" height="60" as="geometry" />
        </mxCell>
        <mxCell id="r28bAOc9dA7kiJvajCny-22" value="consulta informações de computadores" style="ellipse;whiteSpace=wrap;html=1;" parent="1" vertex="1">
          <mxGeometry x="530" y="550" width="120" height="80" as="geometry" />
        </mxCell>
        <mxCell id="WroTUtNixbzUDQ-o0xK4-1" value="Base de conhecimentos" style="shape=cylinder3;whiteSpace=wrap;html=1;boundedLbl=1;backgroundOutline=1;size=15;" vertex="1" parent="1">
          <mxGeometry x="875" y="600" width="60" height="80" as="geometry" />
        </mxCell>
        <mxCell id="WroTUtNixbzUDQ-o0xK4-3" style="rounded=0;orthogonalLoop=1;jettySize=auto;html=1;entryX=0;entryY=0.5;entryDx=0;entryDy=0;" edge="1" parent="1" target="WroTUtNixbzUDQ-o0xK4-2">
          <mxGeometry relative="1" as="geometry">
            <mxPoint x="230" y="270" as="sourcePoint" />
            <mxPoint x="510" y="680" as="targetPoint" />
          </mxGeometry>
        </mxCell>
        <mxCell id="WroTUtNixbzUDQ-o0xK4-4" style="rounded=0;orthogonalLoop=1;jettySize=auto;html=1;exitX=1;exitY=0.5;exitDx=0;exitDy=0;" edge="1" parent="1" source="WroTUtNixbzUDQ-o0xK4-2">
          <mxGeometry relative="1" as="geometry">
            <mxPoint x="860" y="330" as="sourcePoint" />
            <mxPoint x="850" y="660" as="targetPoint" />
          </mxGeometry>
        </mxCell>
      </root>
    </mxGraphModel>
  </diagram>
</mxfile>
